<svg xmlns="http://www.w3.org/2000/svg" viewBox="0 0 64 64" role="img" aria-label="Bathing Room favicon">
  <rect width="64" height="64" rx="12" fill="#26231F" />
  <circle cx="49" cy="48" r="5" fill="#8C6B4F" />
  <path
    d="M18 16h14.5c8.2 0 13.5 4.1 13.5 11 0 4.9-2.6 8-6.8 9.5 5.3 1.2 8.8 4.9 8.8 10.8 0 7.8-5.8 12.7-15.1 12.7H18V16Zm12.5 18.1c4.8 0 7.7-1.9 7.7-5.7 0-3.4-2.6-5.3-7.2-5.3h-5.5v11h5Zm1.5 18.9c5.2 0 8.1-2.1 8.1-6 0-3.8-2.8-5.9-8.6-5.9h-6v11.9h6.5Z"
    fill="#FEFCF8"
  />
</svg>
